<?xml version="1.0" encoding="utf-8"?>
<!-- Generator: Adobe Illustrator 26.0.1, SVG Export Plug-In . SVG Version: 6.00 Build 0)  -->
<svg version="1.1" id="Layer_1" xmlns="http://www.w3.org/2000/svg" xmlns:xlink="http://www.w3.org/1999/xlink" x="0px" y="0px"
	 viewBox="0 0 191.23 97.13" style="enable-background:new 0 0 191.23 97.13;" xml:space="preserve">
<style type="text/css">
	.st0{fill:#00C48C;}
	.st1{fill:#4F008C;}
</style>
<g>
	<path class="st0" d="M118.53,58.6v-24h4.07v1.92c1.3-1.59,3.28-2.48,5.34-2.39c4.67,0,8,3.73,8,9.08s-3.37,9.15-8,9.15
		c-2.05,0.09-4.03-0.78-5.34-2.36v8.6H118.53z M122.6,41v4.41c0.78,1.88,2.61,3.1,4.64,3.09c2.7,0,4.5-2,4.5-5.31
		s-1.8-5.25-4.5-5.25C125.21,37.9,123.36,39.12,122.6,41"/>
	<path class="st0" d="M138.6,47c-0.13-2.79,2.01-5.16,4.8-5.31l6.91-0.88V39.9c0.11-0.75-0.4-1.46-1.16-1.57
		c-0.11-0.02-0.23-0.02-0.34-0.01h-8.68v-3.7h8.85c3.5,0,5.43,1.72,5.43,4.78v12.47h-4.1v-2.12c-1.34,1.77-3.48,2.76-5.7,2.63
		c-3.57,0-6-2.19-6-5.42 M145.61,49.08c2,0.05,3.84-1.08,4.7-2.89V44l-5.27,0.74c-1.47,0.21-2.27,1-2.27,2.22
		S143.77,49.08,145.61,49.08"/>
	<path class="st0" d="M157.37,54.9h3c0.96,0.09,1.83-0.56,2-1.51l0.54-1.52l-6.27-17.25h4.16l3.91,12h0.1l3.73-12h4.26l-6.87,19.81
		c-0.93,2.72-2.17,4.17-5.2,4.17h-3.31L157.37,54.9z"/>
	<path class="st1" d="M33.38,70.46c4.73,0,8.62-1.48,11.17-4c1.96-1.97,3.04-4.64,3-7.42c0.04-2.57-0.95-5.05-2.75-6.89
		c-2.15-2.03-4.86-3.36-7.78-3.82l-5.44-1.06c-2.26-0.42-3.53-1.55-3.53-3.11c0-2,2-3.46,5.16-3.46c1.77-0.07,3.5,0.57,4.8,1.77
		c0.74,0.8,1.21,1.82,1.35,2.9l7.84-1.77c-0.24-2.24-1.27-4.32-2.9-5.87c-3.04-2.81-7.06-4.31-11.2-4.17
		c-3.81-0.12-7.52,1.19-10.4,3.68c-2.13,1.96-3.33,4.73-3.32,7.63c-0.08,2.43,0.84,4.78,2.55,6.5c2.08,1.91,4.65,3.21,7.42,3.75
		l5.37,1.27c2.69,0.64,3.89,1.63,3.89,3.4c0,2.19-2,3.46-5.23,3.46c-2.01,0.11-3.98-0.62-5.44-2c-0.86-0.87-1.37-2.03-1.42-3.25
		l-8.06,1.77c0.24,2.36,1.3,4.57,3,6.22c2.69,2.82,7,4.52,11.88,4.52 M93,70.51c4.45,0.12,8.76-1.53,12-4.59
		c2.03-1.96,3.49-4.42,4.24-7.14L101.03,56c-0.98,3.57-4.3,6-8,5.87c-2.34-0.01-4.57-0.93-6.23-2.58c-1.81-1.98-2.77-4.6-2.67-7.29
		c-0.11-2.68,0.85-5.3,2.67-7.27c1.66-1.63,3.9-2.52,6.22-2.47c2.08-0.1,4.1,0.67,5.59,2.12c0.99,1.06,1.72,2.34,2.12,3.74
		l8.41-2.82c-0.71-2.64-2.09-5.05-4-7c-3.32-3.16-7.76-4.87-12.34-4.74c-4.78-0.05-9.39,1.81-12.8,5.16
		c-3.45,3.55-5.34,8.33-5.27,13.28c-0.07,4.98,1.87,9.77,5.38,13.3c3.45,3.37,8.11,5.23,12.93,5.16 M64.48,70.46
		c3.68,0,6.29-1.13,7.43-2.12v-7.63c-1.4,0.94-3.05,1.44-4.74,1.41c-1.28,0.1-2.55-0.3-3.54-1.12c-0.79-1-1.17-2.27-1.06-3.54V25.08
		h-9.33v9.54h18.67v9.05H53.24v16c-0.13,2.83,0.86,5.6,2.76,7.7c2,2,4.88,3,8.48,3"/>
</g>
</svg>
